<svg xmlns="http://www.w3.org/2000/svg" width="24" height="24" viewBox="0 0 24 24" fill="none" stroke="currentColor" stroke-width="2" stroke-linecap="round" stroke-linejoin="round" class="feather feather-reddit"><path d="M12 22c5.523 0 10-4.477 10-10S17.523 2 12 2 2 6.477 2 12s4.477 10 10 10z"></path><path d="M12 12c-1.657 0-3 1.343-3 3s1.343 3 3 3 3-1.343 3-3-1.343-3-3-3zm0-4c1.105 0 2 .895 2 2s-.895 2-2 2-2-.895-2-2 .895-2 2-2zm5.08.337a1.5 1.5 0 0 0-2.12-.001l-1.415 1.415a.5.5 0 0 0 .707.707l1.415-1.414a.5.5 0 0 1 .707 0 .5.5 0 0 1 0 .707l-4.242 4.242a.5.5 0 0 0 .707.707l4.242-4.242a1.5 1.5 0 0 0 0-2.121z"></path></svg>
