<svg xmlns="http://www.w3.org/2000/svg" width="24" height="24" viewBox="0 0 24 24" fill="none" stroke="currentColor" stroke-width="2" stroke-linecap="round" stroke-linejoin="round" class="feather feather-discord"><path d="M12 22c5.523 0 10-4.477 10-10S17.523 2 12 2 2 6.477 2 12s4.477 10 10 10z"></path><path d="M9.09 9a3 3 0 0 1 5.82 1c0 1.292-.667 2.42-1.667 3L12 15l-1.163-1.162A3.001 3.001 0 0 1 9.09 9.999V9zm-1.82-1.82a3 3 0 0 0-4.24 4.24l1.41 1.41a.5.5 0 0 0 .71-.71l-1.42-1.42a2 2 0 0 1 2.83-2.83l1.42 1.42a.5.5 0 0 0 .71-.71l-1.41-1.41zm7.07 0a3 3 0 0 0-4.24 0l-1.41 1.41a.5.5 0 0 0 .71.71l1.41-1.41a2 2 0 0 1 2.83 2.83l-1.42 1.42a.5.5 0 0 0 .71.71l1.41-1.41a3 3 0 0 0 0-4.24z"></path></svg>
